<svg xmlns="http://www.w3.org/2000/svg" viewBox="0 0 1376 768" width="1376" height="768" style="background:#FAF9F5;font-family:-apple-system,BlinkMacSystemFont,'Segoe UI',Roboto,Helvetica,Arial,sans-serif;">
      <defs>
        <pattern id="gridW" width="32" height="32" patternUnits="userSpaceOnUse">
          <path d="M 32 0 L 0 0 0 32" fill="none" stroke="#E2E8F0" stroke-width="0.7"/>
        </pattern>
        <filter id="shW" x="-10%" y="-10%" width="125%" height="125%">
          <feDropShadow dx="0" dy="4" stdDeviation="6" flood-color="#0F172A" flood-opacity="0.06"/>
        </filter>
      </defs>

      <rect width="1376" height="768" fill="#FAF9F5"/>
      <rect width="1376" height="768" fill="url(#gridW)"/>

      <!-- Header -->
      <g transform="translate(60, 45)">
        <text x="0" y="0" fill="#64748B" font-size="12" font-family="monospace" letter-spacing="2">THE PURRPURR DISPATCH • AUDITORÍA DE SEGURIDAD FINANCIERA</text>
        <text x="1256" y="0" fill="#4F46E5" font-size="12" font-family="monospace" letter-spacing="2" text-anchor="end" font-weight="700">FIG. 2.1 — ANATOMÍA DE UN WEBHOOK CRIPTOGRÁFICO</text>
        <line x1="0" y1="12" x2="1256" y2="12" stroke="#CBD5E1" stroke-width="1" stroke-dasharray="4,4"/>
      </g>

      <!-- Title -->
      <g transform="translate(60, 95)">
        <text x="0" y="0" fill="#0F172A" font-size="24" font-weight="900" letter-spacing="-0.5">El Apretón de Manos Criptográfico: Wompi Bancolombia vs. Next.js Edge</text>
        <text x="0" y="24" fill="#64748B" font-size="13">Cómo viaja un pago real desde la pasarela financiera y por qué requiere una firma digital inviolable en el servidor.</text>
      </g>

      <!-- Panel 1: Incoming Webhook -->
      <g transform="translate(60, 155)">
        <rect width="380" height="420" rx="14" fill="#FFFFFF" stroke="#CBD5E1" stroke-width="1.2" filter="url(#shW)"/>
        <rect width="380" height="42" rx="14" fill="#F8FAFC"/>
        <rect y="38" width="380" height="4" fill="#F8FAFC"/>
        <line x1="0" y1="42" x2="380" y2="42" stroke="#E2E8F0" stroke-width="1"/>
        <circle cx="22" cy="21" r="5" fill="#EF4444"/>
        <circle cx="38" cy="21" r="5" fill="#F59E0B"/>
        <circle cx="54" cy="21" r="5" fill="#10B981"/>
        <text x="75" y="26" fill="#475569" font-size="11" font-family="monospace" font-weight="700">POST /api/webhooks/wompi</text>

        <g transform="translate(20, 65)">
          <text x="0" y="0" fill="#0369A1" font-size="10" font-family="monospace" font-weight="800">1. PAYLOAD ENTRANTE (BANCOLOMBIA)</text>
          <rect y="12" width="340" height="320" rx="8" fill="#F8FAFC" stroke="#E2E8F0" stroke-width="1"/>
          
          <g transform="translate(14, 32)" font-family="monospace" font-size="10.5" fill="#1E293B">
            <text x="0" y="0"><tspan fill="#64748B">"event": </tspan><tspan fill="#059669">"transaction.updated"</tspan>,</text>
            <text x="0" y="20"><tspan fill="#64748B">"data": {</tspan></text>
            <text x="14" y="40"><tspan fill="#64748B">"id": </tspan><tspan fill="#D97706">"tran_99812_live"</tspan>,</text>
            <text x="14" y="60"><tspan fill="#64748B">"amount_in_cents": </tspan><tspan fill="#4F46E5">18500000</tspan>,</text>
            <text x="14" y="80"><tspan fill="#64748B">"currency": </tspan><tspan fill="#059669">"COP"</tspan>,</text>
            <text x="14" y="100"><tspan fill="#64748B">"status": </tspan><tspan fill="#059669">"APPROVED"</tspan>,</text>
            <text x="14" y="120"><tspan fill="#64748B">"customer_email": </tspan><tspan fill="#0284C7">"cliente@empresa.co"</tspan></text>
            <text x="0" y="140"><tspan fill="#64748B">},</tspan></text>
            <text x="0" y="165"><tspan fill="#64748B">"signature": {</tspan></text>
            <text x="14" y="185"><tspan fill="#DC2626">"checksum": </tspan><tspan fill="#991B1B" font-weight="700">"a79f...8b1e"</tspan>,</text>
            <text x="14" y="205"><tspan fill="#64748B">"timestamp": </tspan><tspan fill="#475569">1789254000</tspan></text>
            <text x="0" y="225"><tspan fill="#64748B">}</tspan></text>
          </g>

          <rect y="295" width="340" height="25" rx="4" fill="#E0F2FE"/>
          <text x="170" y="311" fill="#0369A1" font-size="9" font-family="monospace" font-weight="700" text-anchor="middle">ENVIADO DESDE IP OFICIAL WOMPI</text>
        </g>
      </g>

      <!-- Connecting Arrow 1 -->
      <g transform="translate(450, 360)">
        <path d="M 0 0 L 75 0" stroke="#4F46E5" stroke-width="3" stroke-dasharray="6,4"/>
        <polygon points="75,-5 85,0 75,5" fill="#4F46E5"/>
      </g>

      <!-- Panel 2: Cryptographic Chamber -->
      <g transform="translate(545, 155)">
        <rect width="400" height="420" rx="14" fill="#FFFFFF" stroke="#4F46E5" stroke-width="1.8" filter="url(#shW)"/>
        <rect width="400" height="42" rx="14" fill="#EEF2FF"/>
        <rect y="38" width="400" height="4" fill="#EEF2FF"/>
        <line x1="0" y1="42" x2="400" y2="42" stroke="#C7D2FE" stroke-width="1"/>
        <text x="20" y="26" fill="#3730A3" font-size="11" font-family="monospace" font-weight="800">2. CÁMARA DE VERIFICACIÓN HMAC-SHA256</text>

        <g transform="translate(20, 65)">
          <text x="0" y="0" fill="#1E293B" font-size="12" font-weight="800">Cómputo Local en Memoria Segura</text>
          <text x="0" y="20" fill="#64748B" font-size="11">El servidor concatena los valores con el secreto bancario privado:</text>

          <rect y="32" width="360" height="60" rx="6" fill="#F1F5F9" stroke="#CBD5E1" stroke-width="1"/>
          <text x="12" y="55" fill="#0F172A" font-size="10" font-family="monospace" font-weight="700">RAW_STRING =</text>
          <text x="12" y="74" fill="#4338CA" font-size="9.5" font-family="monospace">id + status + amount + WOMPI_SECRET</text>

          <g transform="translate(180, 125)">
            <circle cx="0" cy="0" r="30" fill="#4F46E5"/>
            <path d="M -8 -2 L -8 -7 C -8 -11.4 -4.4 -15 0 -15 C 4.4 -15 8 -11.4 8 -7 L 8 -2 L 10 -2 C 11.1 -2 12 -1.1 12 0 L 12 12 C 12 13.1 11.1 14 10 14 L -10 14 C -11.1 14 -12 13.1 -12 12 L -12 0 C -12 -1.1 -11.1 -2 -10 -2 Z M -5 -2 L 5 -2 L 5 -7 C 5 -9.8 2.8 -12 0 -12 C -2.8 -12 -5 -9.8 -5 -7 Z" fill="#FFFFFF"/>
            <circle cx="0" cy="5" r="2" fill="#4F46E5"/>
          </g>

          <rect y="175" width="360" height="65" rx="6" fill="#ECFDF5" stroke="#6EE7B7" stroke-width="1"/>
          <text x="12" y="196" fill="#065F46" font-size="10" font-family="monospace" font-weight="800">HASH GENERADO LOCALMENTE:</text>
          <text x="12" y="218" fill="#059669" font-size="10" font-family="monospace" font-weight="800">a79f8b1e4c0293d8e920...8b1e</text>
          <text x="348" y="218" fill="#059669" font-size="14" font-weight="900" text-anchor="end">OK</text>

          <rect y="260" width="360" height="65" rx="8" fill="#FEF3C7" stroke="#FCD34D" stroke-width="1"/>
          <text x="12" y="282" fill="#92400E" font-size="10" font-weight="800">COMPARACIÓN CONSTANT-TIME:</text>
          <text x="12" y="302" fill="#B45309" font-size="10.5" font-family="monospace">crypto.timingSafeEqual(localHash, headerHash)</text>
          <text x="348" y="302" fill="#B45309" font-size="11" font-family="monospace" font-weight="900" text-anchor="end">TRUE</text>
        </g>
      </g>

      <!-- Connecting Arrow 2 -->
      <g transform="translate(955, 360)">
        <path d="M 0 0 L 75 0" stroke="#059669" stroke-width="3" stroke-dasharray="6,4"/>
        <polygon points="75,-5 85,0 75,5" fill="#059669"/>
      </g>

      <!-- Panel 3: Autonomous Actions -->
      <g transform="translate(1040, 155)">
        <rect width="276" height="420" rx="14" fill="#FFFFFF" stroke="#059669" stroke-width="1.8" filter="url(#shW)"/>
        <rect width="276" height="42" rx="14" fill="#DCFCE7"/>
        <rect y="38" width="276" height="4" fill="#DCFCE7"/>
        <line x1="0" y1="42" x2="276" y2="42" stroke="#86EFAC" stroke-width="1"/>
        <text x="16" y="26" fill="#065F46" font-size="11" font-family="monospace" font-weight="800">3. ACCIONES BLINDADAS</text>

        <g transform="translate(16, 65)">
          <g>
            <g transform="translate(0, 0)">
              <rect width="244" height="65" rx="6" fill="#F0FDF4" stroke="#86EFAC" stroke-width="1"/>
              <text x="12" y="22" fill="#065F46" font-size="11" font-weight="800">PostgreSQL ACID</text>
              <text x="12" y="42" fill="#475569" font-size="10">Estado: PAID_CONFIRMED.</text>
              <text x="12" y="56" fill="#059669" font-size="9" font-family="monospace">Stock reservado con bloqueo.</text>
            </g>

            <g transform="translate(0, 78)">
              <rect width="244" height="65" rx="6" fill="#F0FDF4" stroke="#86EFAC" stroke-width="1"/>
              <text x="12" y="22" fill="#065F46" font-size="11" font-weight="800">DIAN Res. 165</text>
              <text x="12" y="42" fill="#475569" font-size="10">Emisión automática XML UBL 2.1</text>
              <text x="12" y="56" fill="#059669" font-size="9" font-family="monospace">CUFE generado al instante.</text>
            </g>

            <g transform="translate(0, 156)">
              <rect width="244" height="65" rx="6" fill="#F0FDF4" stroke="#86EFAC" stroke-width="1"/>
              <text x="12" y="22" fill="#065F46" font-size="11" font-weight="800">WhatsApp Commerce</text>
              <text x="12" y="42" fill="#475569" font-size="10">Notificación inmediata al cliente.</text>
              <text x="12" y="56" fill="#059669" font-size="9" font-family="monospace">Guía y resumen de factura.</text>
            </g>

            <g transform="translate(0, 234)">
              <rect width="244" height="65" rx="6" fill="#059669"/>
              <text x="12" y="25" fill="#FFFFFF" font-size="11" font-weight="900">HTTP 200 OK RETORNADO</text>
              <text x="12" y="45" fill="#DCFCE7" font-size="10">Tiempo total de ejecución:</text>
              <text x="12" y="58" fill="#FFFFFF" font-size="11" font-family="monospace" font-weight="900">42 milisegundos</text>
            </g>
          </g>
        </g>
      </g>

      <!-- Bottom Comparative Banner -->
      <g transform="translate(60, 605)">
        <rect width="1256" height="110" rx="12" fill="#FEF2F2" stroke="#F87171" stroke-width="1.2"/>
        <g transform="translate(25, 25)">
          <text x="0" y="0" fill="#991B1B" font-size="12" font-family="monospace" font-weight="800">AVISO: LA VULNERABILIDAD FATAL DE LAS MAQUETAS GENERADAS POR IA (SIN INGENIERÍA):</text>
          <text x="0" y="24" fill="#7F1D1D" font-size="12" font-family="Georgia, serif">
            Las herramientas de moda (Lovable, Bolt, v0, maquetas estáticas) no crean este servidor ni conocen el secreto de Bancolombia. Si montas su código directamente, cualquiera puede disparar una petición POST falsa fingiendo ser Wompi con <tspan font-family="monospace" font-weight="bold">status: "APPROVED"</tspan>. Tu base de datos marcará el pedido como pagado y despacharás productos reales a costo cero. La ingeniería no es una opción; es el blindaje de tu patrimonio.
          </text>
        </g>
      </g>
    </svg>